<svg xmlns="http://www.w3.org/2000/svg" viewBox="0 0 100 100" width="100" height="100">
  <defs>
    <linearGradient id="brainGradient" x1="0%" y1="0%" x2="100%" y2="100%">
      <stop offset="0%" style="stop-color:#667eea;stop-opacity:1" />
      <stop offset="50%" style="stop-color:#764ba2;stop-opacity:1" />
      <stop offset="100%" style="stop-color:#f093fb;stop-opacity:1" />
    </linearGradient>
  </defs>
  
  <!-- Background circle -->
  <circle cx="50" cy="50" r="45" fill="url(#brainGradient)" stroke="#fff" stroke-width="2"/>
  
  <!-- Brain icon -->
  <g transform="translate(25, 25) scale(0.6)">
    <path fill="#ffffff" d="M83.1,32.9c0-11.6-8.8-21.1-20.1-22.2c-2.3-8.8-10.3-15.3-19.9-15.3c-7.9,0-14.8,4.4-18.4,10.9 
      C21.9,7.1,18.4,8,14.7,8C6.6,8,0,14.6,0,22.7c0,2.9,0.8,5.6,2.3,7.9c-1.4,2.3-2.3,5-2.3,7.9c0,8.1,6.6,14.7,14.7,14.7
      c3.7,0,7.2,0.9,9.9,1.7c3.6,6.5,10.5,10.9,18.4,10.9c9.6,0,17.6-6.5,19.9-15.3C74.3,54,83.1,44.5,83.1,32.9z"/>
    
    <!-- Brain details -->
    <path fill="#667eea" opacity="0.3" d="M25,20c-3,0-5.5,2.5-5.5,5.5s2.5,5.5,5.5,5.5s5.5-2.5,5.5-5.5S28,20,25,20z"/>
    <path fill="#667eea" opacity="0.3" d="M58,25c-2.5,0-4.5,2-4.5,4.5s2,4.5,4.5,4.5s4.5-2,4.5-4.5S60.5,25,58,25z"/>
    <path fill="#667eea" opacity="0.3" d="M35,35c-2,0-3.5,1.5-3.5,3.5s1.5,3.5,3.5,3.5s3.5-1.5,3.5-3.5S37,35,35,35z"/>
  </g>
  
  <!-- Question mark overlay -->
  <text x="50" y="75" font-family="Arial, sans-serif" font-size="20" font-weight="bold" fill="#ffffff" text-anchor="middle">?</text>
</svg>
